<?xml version="1.0" standalone="no"?>
<!DOCTYPE svg PUBLIC "-//W3C//DTD SVG 20010904//EN"
 "http://www.w3.org/TR/2001/REC-SVG-20010904/DTD/svg10.dtd">
<svg version="1.0" xmlns="http://www.w3.org/2000/svg"
 width="160.000000pt" height="160.000000pt" viewBox="0 0 160.000000 160.000000"
 preserveAspectRatio="xMidYMid meet">
<metadata>
Created by potrace 1.14, written by Peter Selinger 2001-2017
</metadata>
<g transform="translate(0.000000,160.000000) scale(0.100000,-0.100000)"
fill="#000000" stroke="none">
<path d="M575 1564 c33 -19 54 -43 55 -61 0 -18 -80 -16 -118 2 -17 9 -53 18
-80 22 -128 15 -232 -77 -232 -206 0 -45 -3 -52 -38 -80 l-37 -30 33 -1 c61 0
40 -57 -66 -170 -33 -36 -59 -66 -57 -68 5 -6 100 31 107 42 19 28 6 -29 -16
-72 -34 -68 -46 -141 -44 -275 l2 -119 23 28 c12 16 25 41 28 56 13 59 23 34
21 -49 -2 -48 1 -104 6 -123 10 -38 129 -283 134 -277 2 2 14 23 27 46 12 24
27 44 32 44 6 0 19 -16 29 -37 11 -20 39 -60 63 -87 24 -28 43 -58 43 -66 0
-24 39 14 57 54 16 40 24 41 60 5 15 -15 62 -51 104 -79 74 -49 76 -50 100
-33 13 9 46 26 74 36 27 10 66 35 87 56 21 21 39 38 41 38 2 0 2 -13 -1 -29
-5 -33 10 -47 30 -29 7 7 30 26 51 41 35 26 53 54 72 112 7 20 7 20 15 -1 9
-23 59 -68 99 -89 l27 -13 0 41 c1 25 16 76 38 127 44 100 64 179 61 238 -1
23 2 45 7 48 4 3 8 -2 8 -11 0 -16 63 -85 78 -85 4 0 7 73 6 163 0 163 -11
232 -58 367 -15 45 -13 50 26 50 15 0 28 2 28 5 0 3 -25 35 -55 72 -40 50 -53
73 -48 88 44 143 -68 285 -216 272 -31 -2 -76 -14 -101 -26 -52 -25 -50 -25
-50 -7 0 14 67 46 97 46 13 0 14 3 5 12 -20 20 -159 12 -245 -14 l-78 -24 -58
29 c-42 21 -77 30 -132 33 -74 5 -74 5 -44 -12z"/>
</g>
</svg>
